<svg xmlns="http://www.w3.org/2000/svg" viewBox="0 0 1024 1024" fill="none"><path fill="#000" fill-rule="evenodd" d="M 316 422 L 315 422 L 314 422 L 313 422 L 312 422 L 311 422 L 310 422 L 309 422 L 308 422 L 307 422 L 306 422 L 305 422 L 304 422 L 303 422 L 302 422 L 301 422 L 300 422 L 299 422 L 298 422 L 297 422 L 296 422 L 295 422 L 294 422 L 293 422 L 292 422 L 291 422 L 290 422 L 289 422 L 288 422 L 287 422 L 286 422 L 285 422 L 284 422 L 283 422 L 282 422 L 281 422 L 280 422 L 279 422 L 278 422 L 277 422 L 276 422 L 275 422 L 274 422 L 273 422 L 272 422 L 271 422 L 270 422 L 270 423 L 270 424 L 270 425 L 270 426 L 270 427 L 270 428 L 270 429 L 270 430 L 270 431 L 270 432 L 270 433 L 270 434 L 270 435 L 270 436 L 270 437 L 270 438 L 270 439 L 270 440 L 270 441 L 270 442 L 270 443 L 270 444 L 270 445 L 270 446 L 270 447 L 270 448 L 270 449 L 270 450 L 270 451 L 270 452 L 270 453 L 270 454 L 270 455 L 270 456 L 270 457 L 270 458 L 270 459 L 270 460 L 270 461 L 270 462 L 270 463 L 270 464 L 270 465 L 270 466 L 270 467 L 270 468 L 270 469 L 270 470 L 270 471 L 270 472 L 270 473 L 270 474 L 270 475 L 270 476 L 270 477 L 270 478 L 270 479 L 270 480 L 270 481 L 270 482 L 270 483 L 270 484 L 270 485 L 270 486 L 270 487 L 270 488 L 270 489 L 270 490 L 270 491 L 270 492 L 270 493 L 270 494 L 270 495 L 270 496 L 270 497 L 270 498 L 270 499 L 270 500 L 270 501 L 270 502 L 270 503 L 270 504 L 270 505 L 270 506 L 270 507 L 270 508 L 270 509 L 270 510 L 270 511 L 270 512 L 270 513 L 270 514 L 270 515 L 270 516 L 270 517 L 270 518 L 270 519 L 270 520 L 270 521 L 270 522 L 270 523 L 270 524 L 270 525 L 270 526 L 270 527 L 270 528 L 270 529 L 270 530 L 270 531 L 270 532 L 270 533 L 270 534 L 270 535 L 270 536 L 270 537 L 270 538 L 270 539 L 270 540 L 270 541 L 270 542 L 270 543 L 270 544 L 270 545 L 270 546 L 270 547 L 270 548 L 270 549 L 270 550 L 270 551 L 270 552 L 270 553 L 270 554 L 270 555 L 270 556 L 270 557 L 270 558 L 270 559 L 270 560 L 270 561 L 270 562 L 270 563 L 270 564 L 270 565 L 270 566 L 270 567 L 270 568 L 270 569 L 270 570 L 270 571 L 270 572 L 270 573 L 270 574 L 270 575 L 270 576 L 270 577 L 270 578 L 270 579 L 270 580 L 270 581 L 270 582 L 270 583 L 270 584 L 270 585 L 270 586 L 270 587 L 270 588 L 270 589 L 270 590 L 270 591 L 270 592 L 270 593 L 270 594 L 270 595 L 270 596 L 270 597 L 270 598 L 270 599 L 270 600 L 270 601 L 270 602 L 270 603 L 270 604 L 270 605 L 270 606 L 270 607 L 270 608 L 270 609 L 270 610 L 270 611 L 270 612 L 270 613 L 270 614 L 270 615 L 270 616 L 270 617 L 270 618 L 270 619 L 270 620 L 270 621 L 270 622 L 270 623 L 270 624 L 270 625 L 270 626 L 270 627 L 270 628 L 270 629 L 270 630 L 270 631 L 270 632 L 270 633 L 270 634 L 270 635 L 270 636 L 270 637 L 270 638 L 270 639 L 270 640 L 270 641 L 270 642 L 270 643 L 270 644 L 270 645 L 270 646 L 270 647 L 270 648 L 270 649 L 270 650 L 270 651 L 270 652 L 270 653 L 270 654 L 270 655 L 270 656 L 270 657 L 270 658 L 270 659 L 270 660 L 270 661 L 270 662 L 270 663 L 270 664 L 270 665 L 270 666 L 270 667 L 270 668 L 270 669 L 270 670 L 270 671 L 269 671 L 268 671 L 267 671 L 266 671 L 265 671 L 264 671 L 263 671 L 262 671 L 261 671 L 260 671 L 259 671 L 258 671 L 257 671 L 256 671 L 255 671 L 254 671 L 253 671 L 252 671 L 251 671 L 250 671 L 249 671 L 248 671 L 247 671 L 246 671 L 245 671 L 244 671 L 243 671 L 242 671 L 241 671 L 240 671 L 239 671 L 238 671 L 237 671 L 236 671 L 235 671 L 234 671 L 233 671 L 232 671 L 231 671 L 230 671 L 229 671 L 228 671 L 227 671 L 226 671 L 225 671 L 224 671 L 223 671 L 222 671 L 221 671 L 220 671 L 219 671 L 218 671 L 217 671 L 216 671 L 215 671 L 214 671 L 213 671 L 212 671 L 211 671 L 210 671 L 209 671 L 208 671 L 207 671 L 206 671 L 205 671 L 204 671 L 203 671 L 202 671 L 201 671 L 200 671 L 199 671 L 198 671 L 197 671 L 196 671 L 195 671 L 194 671 L 193 671 L 192 671 L 192 670 L 193 670 L 193 669 L 193 668 L 193 667 L 193 666 L 193 665 L 193 664 L 193 663 L 193 662 L 193 661 L 192 661 L 192 660 L 193 660 L 193 659 L 193 658 L 193 657 L 193 656 L 193 655 L 193 654 L 193 653 L 193 652 L 193 651 L 193 650 L 193 649 L 193 648 L 193 647 L 192 647 L 192 646 L 192 645 L 193 645 L 193 644 L 192 644 L 192 643 L 193 643 L 193 642 L 193 641 L 193 640 L 193 639 L 193 638 L 193 637 L 193 636 L 193 635 L 193 634 L 192 634 L 192 633 L 193 633 L 193 632 L 193 631 L 193 630 L 193 629 L 193 628 L 193 627 L 192 627 L 192 626 L 192 625 L 193 625 L 193 624 L 192 624 L 192 623 L 192 622 L 192 621 L 192 620 L 192 619 L 192 618 L 192 617 L 192 616 L 192 615 L 192 614 L 192 613 L 192 612 L 192 611 L 192 610 L 192 609 L 192 608 L 192 607 L 192 606 L 192 605 L 192 604 L 192 603 L 192 602 L 192 601 L 193 601 L 193 600 L 192 600 L 192 599 L 192 598 L 192 597 L 192 596 L 192 595 L 192 594 L 192 593 L 193 593 L 193 592 L 192 592 L 192 591 L 192 590 L 192 589 L 192 588 L 192 587 L 192 586 L 192 585 L 192 584 L 192 583 L 192 582 L 193 582 L 193 581 L 192 581 L 192 580 L 192 579 L 193 579 L 193 578 L 192 578 L 192 577 L 193 577 L 193 576 L 192 576 L 192 575 L 192 574 L 192 573 L 192 572 L 192 571 L 192 570 L 192 569 L 192 568 L 192 567 L 192 566 L 192 565 L 192 564 L 192 563 L 192 562 L 192 561 L 192 560 L 192 559 L 192 558 L 192 557 L 192 556 L 192 555 L 192 554 L 192 553 L 192 552 L 192 551 L 192 550 L 192 549 L 192 548 L 192 547 L 192 546 L 192 545 L 192 544 L 193 544 L 193 543 L 192 543 L 192 542 L 192 541 L 192 540 L 192 539 L 193 539 L 193 538 L 192 538 L 192 537 L 193 537 L 193 536 L 192 536 L 192 535 L 192 534 L 192 533 L 192 532 L 192 531 L 192 530 L 192 529 L 192 528 L 192 527 L 192 526 L 192 525 L 192 524 L 192 523 L 192 522 L 192 521 L 192 520 L 193 520 L 193 519 L 192 519 L 192 518 L 193 518 L 193 517 L 193 516 L 193 515 L 193 514 L 193 513 L 193 512 L 192 512 L 192 511 L 192 510 L 192 509 L 192 508 L 192 507 L 192 506 L 192 505 L 192 504 L 192 503 L 192 502 L 192 501 L 192 500 L 192 499 L 192 498 L 192 497 L 192 496 L 192 495 L 192 494 L 193 494 L 193 493 L 193 492 L 193 491 L 192 491 L 192 490 L 192 489 L 192 488 L 193 488 L 193 487 L 193 486 L 193 485 L 192 485 L 192 484 L 193 484 L 193 483 L 193 482 L 193 481 L 193 480 L 192 480 L 192 479 L 192 478 L 192 477 L 192 476 L 193 476 L 193 475 L 192 475 L 192 474 L 192 473 L 192 472 L 192 471 L 192 470 L 193 470 L 193 469 L 192 469 L 192 468 L 192 467 L 192 466 L 192 465 L 193 465 L 193 464 L 193 463 L 193 462 L 193 461 L 193 460 L 193 459 L 193 458 L 193 457 L 193 456 L 193 455 L 193 454 L 193 453 L 193 452 L 193 451 L 193 450 L 193 449 L 193 448 L 193 447 L 193 446 L 192 446 L 192 445 L 193 445 L 193 444 L 193 443 L 193 442 L 192 442 L 192 441 L 192 440 L 193 440 L 193 439 L 193 438 L 193 437 L 193 436 L 193 435 L 193 434 L 193 433 L 193 432 L 193 431 L 193 430 L 193 429 L 193 428 L 193 427 L 193 426 L 193 425 L 193 424 L 193 423 L 193 422 L 193 421 L 193 420 L 193 419 L 193 418 L 193 417 L 193 416 L 193 415 L 193 414 L 193 413 L 193 412 L 193 411 L 193 410 L 193 409 L 193 408 L 193 407 L 193 406 L 193 405 L 193 404 L 193 403 L 193 402 L 193 401 L 193 400 L 193 399 L 193 398 L 193 397 L 193 396 L 193 395 L 193 394 L 193 393 L 193 392 L 193 391 L 193 390 L 193 389 L 193 388 L 193 387 L 193 386 L 193 385 L 193 384 L 193 383 L 193 382 L 193 381 L 193 380 L 193 379 L 193 378 L 193 377 L 193 376 L 193 375 L 193 374 L 193 373 L 193 372 L 193 371 L 193 370 L 193 369 L 193 368 L 193 367 L 193 366 L 193 365 L 193 364 L 192 364 L 192 363 L 193 363 L 193 362 L 192 362 L 192 361 L 193 361 L 193 360 L 192 360 L 192 359 L 193 359 L 193 358 L 193 357 L 193 356 L 192 356 L 192 355 L 193 355 L 193 354 L 194 354 L 195 354 L 196 354 L 197 354 L 198 354 L 199 354 L 200 354 L 201 354 L 202 354 L 203 354 L 204 354 L 205 354 L 206 354 L 207 354 L 208 354 L 209 354 L 210 354 L 211 354 L 212 354 L 213 354 L 214 354 L 215 354 L 216 354 L 217 354 L 218 354 L 219 354 L 220 354 L 221 354 L 222 354 L 223 354 L 224 354 L 225 354 L 226 354 L 227 354 L 228 354 L 229 354 L 230 354 L 231 354 L 232 354 L 233 354 L 234 354 L 235 354 L 236 354 L 237 354 L 238 354 L 239 354 L 240 354 L 241 354 L 242 354 L 243 354 L 244 354 L 245 354 L 246 354 L 247 354 L 248 354 L 249 354 L 250 354 L 251 354 L 252 354 L 253 354 L 254 354 L 255 354 L 256 354 L 257 354 L 258 354 L 259 354 L 260 354 L 261 354 L 262 354 L 263 354 L 264 354 L 265 354 L 266 354 L 267 354 L 268 354 L 269 354 L 270 354 L 271 354 L 272 354 L 273 354 L 274 354 L 275 354 L 276 354 L 277 354 L 278 354 L 279 354 L 280 354 L 281 354 L 282 354 L 283 354 L 284 354 L 285 354 L 286 354 L 287 354 L 288 354 L 289 354 L 290 354 L 291 354 L 292 354 L 293 354 L 294 354 L 295 354 L 296 354 L 297 354 L 298 354 L 299 354 L 300 354 L 301 354 L 302 354 L 303 354 L 304 354 L 305 354 L 306 354 L 307 354 L 308 354 L 309 354 L 310 354 L 311 354 L 312 354 L 313 354 L 314 354 L 315 354 L 316 354 L 317 354 L 318 354 L 319 354 L 320 354 L 321 354 L 322 354 L 323 354 L 324 354 L 325 354 L 326 354 L 327 354 L 328 354 L 329 354 L 330 354 L 331 354 L 332 354 L 333 354 L 334 354 L 335 354 L 336 354 L 337 354 L 338 354 L 339 354 L 340 354 L 341 354 L 342 354 L 343 354 L 344 354 L 345 354 L 346 354 L 347 354 L 348 354 L 349 354 L 350 354 L 351 354 L 352 354 L 353 354 L 354 354 L 355 354 L 356 354 L 357 354 L 358 354 L 359 354 L 360 354 L 361 354 L 362 354 L 363 354 L 364 354 L 365 354 L 366 354 L 367 354 L 368 354 L 369 354 L 370 354 L 371 354 L 372 354 L 373 354 L 374 354 L 375 354 L 376 354 L 377 354 L 378 354 L 379 354 L 380 354 L 381 354 L 382 354 L 383 354 L 384 354 L 385 354 L 386 354 L 387 354 L 388 354 L 389 354 L 390 354 L 391 354 L 392 354 L 393 354 L 394 354 L 395 354 L 396 354 L 397 354 L 398 354 L 399 354 L 400 354 L 401 354 L 402 354 L 403 354 L 404 354 L 405 354 L 406 354 L 407 354 L 408 354 L 409 354 L 410 354 L 411 354 L 412 354 L 413 354 L 414 354 L 415 354 L 416 354 L 417 354 L 418 354 L 419 354 L 420 354 L 421 354 L 422 354 L 423 354 L 424 354 L 425 354 L 426 354 L 427 354 L 428 354 L 429 354 L 430 354 L 431 354 L 432 354 L 433 354 L 434 354 L 435 354 L 436 354 L 437 354 L 438 354 L 439 354 L 440 354 L 441 354 L 442 354 L 443 354 L 444 354 L 445 354 L 446 354 L 447 354 L 448 354 L 448 355 L 448 356 L 448 357 L 448 358 L 448 359 L 448 360 L 448 361 L 448 362 L 448 363 L 448 364 L 448 365 L 448 366 L 448 367 L 448 368 L 448 369 L 448 370 L 448 371 L 448 372 L 448 373 L 448 374 L 448 375 L 448 376 L 448 377 L 448 378 L 448 379 L 448 380 L 448 381 L 448 382 L 448 383 L 448 384 L 448 385 L 448 386 L 448 387 L 448 388 L 448 389 L 448 390 L 448 391 L 448 392 L 448 393 L 448 394 L 448 395 L 448 396 L 448 397 L 448 398 L 448 399 L 448 400 L 448 401 L 448 402 L 448 403 L 448 404 L 448 405 L 448 406 L 448 407 L 448 408 L 448 409 L 448 410 L 448 411 L 448 412 L 448 413 L 448 414 L 448 415 L 448 416 L 448 417 L 448 418 L 448 419 L 448 420 L 448 421 L 448 422 L 447 422 L 446 422 L 445 422 L 444 422 L 443 422 L 442 422 L 441 422 L 440 422 L 439 422 L 438 422 L 437 422 L 436 422 L 435 422 L 434 422 L 433 422 L 432 422 L 431 422 L 430 422 L 429 422 L 428 422 L 427 422 L 426 422 L 425 422 L 424 422 L 423 422 L 422 422 L 421 422 L 420 422 L 419 422 L 418 422 L 417 422 L 416 422 L 415 422 L 414 422 L 413 422 L 412 422 L 411 422 L 410 422 L 409 422 L 408 422 L 407 422 L 406 422 L 405 422 L 404 422 L 403 422 L 402 422 L 401 422 L 400 422 L 399 422 L 398 422 L 397 422 L 396 422 L 395 422 L 394 422 L 393 422 L 392 422 L 391 422 L 390 422 L 389 422 L 388 422 L 387 422 L 386 422 L 385 422 L 384 422 L 383 422 L 382 422 L 381 422 L 380 422 L 379 422 L 378 422 L 377 422 L 376 422 L 375 422 L 374 422 L 373 422 L 372 422 L 371 422 L 370 422 L 369 422 L 368 422 L 367 422 L 366 422 L 365 422 L 364 422 L 363 422 L 362 422 L 361 422 L 360 422 L 359 422 L 358 422 L 357 422 L 356 422 L 355 422 L 354 422 L 353 422 L 352 422 L 351 422 L 350 422 L 349 422 L 348 422 L 347 422 L 346 422 L 345 422 L 344 422 L 343 422 L 342 422 L 341 422 L 340 422 L 339 422 L 338 422 L 337 422 L 336 422 L 335 422 L 334 422 L 333 422 L 332 422 L 331 422 L 330 422 L 329 422 L 328 422 L 327 422 L 326 422 L 325 422 L 324 422 L 323 422 L 322 422 L 321 422 L 320 422 L 319 422 L 318 422 L 317 422 L 316 422 Z"/></svg>